<svg xmlns="http://www.w3.org/2000/svg" xmlns:xlink="http://www.w3.org/1999/xlink" width="500" zoomAndPan="magnify" viewBox="0 0 375 374.999991" height="500" preserveAspectRatio="xMidYMid meet" version="1.0"><defs><g/><clipPath id="2b8735e957"><path d="M 65.277344 155.703125 L 113.277344 155.703125 L 113.277344 207.453125 L 65.277344 207.453125 Z M 65.277344 155.703125 " clip-rule="nonzero"/></clipPath><clipPath id="f9e5d5bd3d"><path d="M 88 175 L 113.277344 175 L 113.277344 189 L 88 189 Z M 88 175 " clip-rule="nonzero"/></clipPath><clipPath id="87341a757c"><path d="M 105 175 L 113.277344 175 L 113.277344 202 L 105 202 Z M 105 175 " clip-rule="nonzero"/></clipPath><clipPath id="65172bd862"><path d="M 316.222656 199.273438 L 324.746094 199.273438 L 324.746094 207.796875 L 316.222656 207.796875 Z M 316.222656 199.273438 " clip-rule="nonzero"/></clipPath><clipPath id="c6dd554333"><path d="M 320.484375 199.273438 C 318.132812 199.273438 316.222656 201.179688 316.222656 203.535156 C 316.222656 205.886719 318.132812 207.796875 320.484375 207.796875 C 322.839844 207.796875 324.746094 205.886719 324.746094 203.535156 C 324.746094 201.179688 322.839844 199.273438 320.484375 199.273438 Z M 320.484375 199.273438 " clip-rule="nonzero"/></clipPath></defs><g fill="#ffffff" fill-opacity="1"><g transform="translate(122.042435, 204.974972)"><g><path d="M 10.175781 -35.28125 L 2.640625 -35.28125 L 2.640625 -8.59375 C 2.640625 -6.816406 2.640625 -5.566406 2.734375 -4.320312 C 2.929688 -0.960938 5.039062 0.433594 8.640625 0.433594 C 10.320312 0.433594 11.710938 0.335938 13.152344 0.191406 L 13.152344 -4.945312 C 10.894531 -4.847656 10.367188 -5.230469 10.222656 -6.382812 C 10.175781 -7.054688 10.175781 -7.632812 10.175781 -8.734375 Z M 10.175781 -35.28125 "/></g></g></g><g fill="#ffffff" fill-opacity="1"><g transform="translate(136.010405, 204.974972)"><g><path d="M 6.574219 -35.472656 C 4.175781 -35.472656 2.59375 -33.984375 2.59375 -31.679688 C 2.59375 -29.328125 4.175781 -27.839844 6.574219 -27.839844 C 8.976562 -27.839844 10.609375 -29.328125 10.609375 -31.679688 C 10.609375 -33.984375 8.976562 -35.472656 6.574219 -35.472656 Z M 10.367188 0 L 10.367188 -25.585938 L 2.832031 -25.585938 L 2.832031 0 Z M 10.367188 0 "/></g></g></g><g fill="#ffffff" fill-opacity="1"><g transform="translate(149.258383, 204.974972)"><g><path d="M 14.351562 -26.257812 C 7.105469 -26.257812 1.246094 -21.359375 1.246094 -12.574219 C 1.246094 -3.886719 6.625 0.671875 13.726562 0.671875 C 20.398438 0.671875 25.296875 -2.640625 26.304688 -9.070312 L 18.863281 -9.070312 C 18.289062 -6.097656 16.464844 -4.511719 14.160156 -4.511719 C 11.039062 -4.511719 8.976562 -7.105469 8.976562 -13.054688 C 8.976562 -18.480469 10.992188 -21.070312 14.160156 -21.070312 C 16.65625 -21.070312 18.433594 -19.632812 18.960938 -16.128906 L 26.304688 -16.128906 C 25.921875 -21.839844 21.503906 -26.257812 14.351562 -26.257812 Z M 14.351562 -26.257812 "/></g></g></g><g fill="#ffffff" fill-opacity="1"><g transform="translate(176.762333, 204.974972)"><g><path d="M 12.335938 -9.792969 L 19.777344 0 L 29.136719 0 L 17.902344 -13.777344 L 28.992188 -25.585938 L 20.0625 -25.585938 L 10.367188 -14.351562 L 10.367188 -35.28125 L 2.832031 -35.28125 L 2.832031 0 L 10.367188 0 L 10.367188 -7.632812 Z M 12.335938 -9.792969 "/></g></g></g><g fill="#ffffff" fill-opacity="1"><g transform="translate(205.802286, 204.974972)"><g><path d="M 48.382812 -33.121094 L 40.65625 -33.121094 L 35.230469 -5.617188 L 30.238281 -32.640625 L 19.535156 -32.640625 L 14.398438 -5.855469 L 9.3125 -33.121094 L 1.246094 -33.121094 L 9.40625 0 L 19.441406 0 L 24.769531 -26.832031 L 29.761719 0 L 39.742188 0 Z M 48.382812 -33.121094 "/></g></g></g><g fill="#ffffff" fill-opacity="1"><g transform="translate(253.802203, 204.974972)"><g><path d="M 26.878906 -13.246094 C 26.878906 -20.0625 22.65625 -26.257812 14.496094 -26.257812 C 6.382812 -26.257812 1.246094 -20.398438 1.246094 -12.71875 C 1.246094 -3.695312 6.863281 0.671875 14.015625 0.671875 C 20.257812 0.671875 25.054688 -2.449219 26.449219 -8.351562 L 19.007812 -8.351562 C 18.574219 -5.953125 16.800781 -4.511719 14.160156 -4.511719 C 11.328125 -4.511719 9.214844 -5.953125 8.785156 -10.847656 L 26.734375 -10.847656 C 26.832031 -11.761719 26.878906 -12.574219 26.878906 -13.246094 Z M 14.160156 -21.070312 C 16.945312 -21.070312 18.625 -19.199219 19.054688 -15.601562 L 8.976562 -15.601562 C 9.601562 -19.390625 11.472656 -21.070312 14.160156 -21.070312 Z M 14.160156 -21.070312 "/></g></g></g><g fill="#ffffff" fill-opacity="1"><g transform="translate(282.026158, 204.974972)"><g><path d="M 18.863281 -26.257812 C 16.273438 -26.257812 13.726562 -25.679688 12.289062 -24.574219 L 10.367188 -21.742188 L 10.367188 -35.28125 L 2.832031 -35.28125 L 2.832031 0 L 10.367188 0 L 10.367188 -3.359375 L 12.046875 -0.671875 C 13.34375 0.144531 15.886719 0.671875 18 0.671875 C 24.574219 0.671875 30.191406 -4.128906 30.191406 -13.34375 C 30.191406 -20.878906 25.921875 -26.257812 18.863281 -26.257812 Z M 16.222656 -4.511719 C 13.34375 -4.511719 10.367188 -6.433594 10.367188 -11.953125 L 10.367188 -13.105469 C 10.367188 -18.960938 13.007812 -21.070312 16.464844 -21.070312 C 20.015625 -21.070312 22.464844 -17.902344 22.464844 -12.863281 C 22.464844 -7.296875 19.871094 -4.511719 16.222656 -4.511719 Z M 16.222656 -4.511719 "/></g></g></g><g clip-path="url(#2b8735e957)"><path fill="#ffffff" d="M 77.078125 181.746094 C 77.078125 172.171875 83.769531 165.632812 93.5625 165.632812 C 97.257812 165.632812 100.511719 166.578125 103.417969 168.574219 L 113.132812 163.390625 C 108.253906 158.359375 101.28125 155.703125 92.984375 155.703125 C 76.9375 155.703125 65.28125 166.566406 65.28125 181.746094 C 65.28125 196.925781 76.9375 207.792969 92.984375 207.792969 C 99.070312 207.792969 104.4375 206.359375 108.785156 203.628906 L 103.40625 194.921875 C 100.5 196.917969 97.257812 197.859375 93.550781 197.859375 C 83.769531 197.859375 77.078125 191.320312 77.078125 181.746094 Z M 77.078125 181.746094 " fill-opacity="1" fill-rule="evenodd"/></g><g clip-path="url(#f9e5d5bd3d)"><path fill="#ff006b" d="M 105.023438 188.261719 L 113.132812 175.273438 L 88.671875 188.328125 L 102.484375 188.273438 Z M 105.023438 188.261719 " fill-opacity="1" fill-rule="evenodd"/></g><g clip-path="url(#87341a757c)"><path fill="#e01d5b" d="M 113.132812 175.273438 L 105.023438 188.261719 L 113.132812 201.394531 Z M 113.132812 175.273438 " fill-opacity="1" fill-rule="evenodd"/></g><g clip-path="url(#65172bd862)"><g clip-path="url(#c6dd554333)"><path fill="#e01d5b" d="M 316.222656 199.273438 L 324.746094 199.273438 L 324.746094 207.796875 L 316.222656 207.796875 Z M 316.222656 199.273438 " fill-opacity="1" fill-rule="nonzero"/></g></g></svg>